<mxfile host="Electron" agent="Mozilla/5.0 (Windows NT 10.0; Win64; x64) AppleWebKit/537.36 (KHTML, like Gecko) draw.io/24.7.17 Chrome/128.0.6613.36 Electron/32.0.1 Safari/537.36" version="24.7.17">
  <diagram name="Page-1" id="0ROvzwpG8m_B5BdEro7Z">
    <mxGraphModel dx="1102" dy="570" grid="1" gridSize="10" guides="1" tooltips="1" connect="1" arrows="1" fold="1" page="1" pageScale="1" pageWidth="850" pageHeight="1100" math="0" shadow="0">
      <root>
        <mxCell id="0" />
        <mxCell id="1" parent="0" />
        <mxCell id="N8obEA57sLENlZ7y7Qxt-1" value="Degree" style="rounded=1;arcSize=10;whiteSpace=wrap;html=1;align=center;" parent="1" vertex="1">
          <mxGeometry x="400" y="360" width="100" height="40" as="geometry" />
        </mxCell>
        <mxCell id="N8obEA57sLENlZ7y7Qxt-3" value="Course" style="ellipse;whiteSpace=wrap;html=1;align=center;" parent="1" vertex="1">
          <mxGeometry x="400" y="280" width="100" height="40" as="geometry" />
        </mxCell>
        <mxCell id="N8obEA57sLENlZ7y7Qxt-6" value="" style="endArrow=none;html=1;rounded=0;" parent="1" source="N8obEA57sLENlZ7y7Qxt-3" target="N8obEA57sLENlZ7y7Qxt-1" edge="1">
          <mxGeometry relative="1" as="geometry">
            <mxPoint x="374" y="328" as="sourcePoint" />
            <mxPoint x="433" y="370" as="targetPoint" />
          </mxGeometry>
        </mxCell>
        <mxCell id="hrVpBGgG4cmWIqg-xW5W-1" value="User" style="ellipse;whiteSpace=wrap;html=1;align=center;" vertex="1" parent="1">
          <mxGeometry x="290" y="280" width="100" height="40" as="geometry" />
        </mxCell>
        <mxCell id="hrVpBGgG4cmWIqg-xW5W-2" value="" style="endArrow=none;html=1;rounded=0;" edge="1" parent="1" source="hrVpBGgG4cmWIqg-xW5W-1" target="N8obEA57sLENlZ7y7Qxt-1">
          <mxGeometry relative="1" as="geometry">
            <mxPoint x="220" y="420" as="sourcePoint" />
            <mxPoint x="380" y="420" as="targetPoint" />
          </mxGeometry>
        </mxCell>
      </root>
    </mxGraphModel>
  </diagram>
</mxfile>
